<svg width="22" height="24" viewBox="0 0 22 24" fill="none" xmlns="http://www.w3.org/2000/svg">
<path d="M3.72401 2.505C3.72401 2.505 3.64401 2.632 3.72001 2.82C3.76601 2.936 3.90601 3.076 4.06001 3.224C4.06001 3.224 5.67501 4.8 5.87301 5.028C6.76801 6.061 7.15701 7.078 7.19301 8.481C7.21501 9.381 7.04201 10.173 6.62001 11.094C5.86401 12.743 4.27001 14.562 1.81001 16.584L2.17001 16.464C2.40301 16.291 2.71801 16.105 3.46201 15.698C5.17501 14.762 7.09801 13.9 9.46101 13.012C12.86 11.735 18.451 10.236 21.633 9.749L21.964 9.698L21.914 9.618C21.622 9.166 21.424 8.887 21.184 8.591C20.487 7.728 19.642 7.024 18.607 6.445C17.185 5.648 15.34 5.029 13.007 4.565C12.2788 4.42806 11.5483 4.30304 10.816 4.19C9.50601 3.98909 8.19795 3.77575 6.89201 3.55C6.46701 3.475 5.83201 3.369 5.41101 3.278C5.08635 3.20902 4.76556 3.1229 4.45001 3.02C4.18201 2.915 3.80501 2.813 3.72401 2.505ZM4.66001 3.414C4.66301 3.412 4.72301 3.431 4.79701 3.456C4.93301 3.502 5.11301 3.556 5.32301 3.615C5.46901 3.655 5.63001 3.699 5.80201 3.742C6.02001 3.798 6.20101 3.846 6.20301 3.849C6.22701 3.876 6.59401 5.047 6.71901 5.496C6.76701 5.668 6.80301 5.811 6.80001 5.814C6.76516 5.77064 6.73499 5.72371 6.71001 5.674C6.28601 4.928 5.61301 4.169 4.83601 3.558C4.7756 3.51216 4.7169 3.46413 4.66001 3.414ZM6.45001 3.908C6.51579 3.91428 6.58098 3.92565 6.64501 3.942C7.26401 4.078 8.37001 4.292 9.08001 4.412C9.19901 4.432 9.29601 4.452 9.29601 4.459C9.26704 4.485 9.23391 4.50596 9.19801 4.521C9.07901 4.581 8.59601 4.87 8.43501 4.978C8.06724 5.21953 7.72246 5.49435 7.40501 5.799C7.34098 5.86466 7.27529 5.92868 7.20801 5.991C7.19084 5.94645 7.17713 5.90065 7.16701 5.854C6.9972 5.24491 6.77986 4.65009 6.51701 4.075C6.49061 4.02121 6.46691 3.96615 6.44601 3.91C6.44601 3.909 6.44601 3.908 6.45001 3.908ZM9.59701 4.506C9.61701 4.513 9.65701 4.636 9.72601 4.91C9.88539 5.5561 9.93708 6.22407 9.87901 6.887L9.86701 6.925L9.68001 6.865C9.16201 6.70273 8.64127 6.54937 8.11801 6.405C7.92893 6.35661 7.74208 6.29989 7.55801 6.235C7.55801 6.213 8.00701 5.764 8.20001 5.593C8.56901 5.267 9.56201 4.495 9.59701 4.506ZM9.84701 4.542C9.85801 4.532 11.351 4.79 12.029 4.92C12.535 5.017 13.266 5.17 13.31 5.189C13.332 5.197 13.256 5.239 13.013 5.349C12.053 5.781 11.341 6.169 10.633 6.642C10.447 6.766 10.292 6.868 10.289 6.868C10.285 6.868 10.283 6.764 10.283 6.638C10.283 5.948 10.144 5.251 9.89201 4.662C9.87331 4.62349 9.85824 4.58331 9.84701 4.542ZM13.707 5.306C13.718 5.317 13.669 5.612 13.627 5.786C13.495 6.326 13.145 7.13 12.713 7.885C12.6676 7.97016 12.6169 8.05233 12.561 8.131C12.485 8.09876 12.4117 8.0603 12.342 8.016C11.92 7.769 11.442 7.536 10.917 7.319C10.823 7.28207 10.7303 7.24205 10.639 7.199C10.615 7.177 11.782 6.404 12.401 6.033C12.896 5.736 13.693 5.292 13.707 5.306ZM13.983 5.349C14.016 5.349 14.678 5.529 15.02 5.632C15.873 5.887 16.857 6.246 17.495 6.536L17.76 6.656L17.573 6.699C16.012 7.059 14.673 7.472 13.385 7.995C13.278 8.039 13.185 8.075 13.178 8.075C13.1962 8.01077 13.2213 7.94873 13.253 7.89C13.641 7.067 13.891 6.203 13.956 5.47C13.962 5.403 13.974 5.349 13.983 5.349ZM7.40301 6.861C7.41301 6.851 7.91701 6.969 8.19201 7.046C8.60501 7.162 9.48401 7.456 9.48401 7.479C9.48401 7.483 9.38701 7.568 9.26901 7.667C8.75838 8.09633 8.26371 8.5443 7.78601 9.01C7.68717 9.10905 7.58442 9.20412 7.47801 9.295C7.47101 9.295 7.46801 9.272 7.47201 9.245C7.55501 8.634 7.53701 7.85 7.42201 7.052C7.41065 6.98925 7.40397 6.92574 7.40201 6.862L7.40301 6.861ZM18.013 6.871C18.02 6.879 17.779 7.256 17.629 7.471C17.409 7.785 17.092 8.197 16.368 9.108L15.414 10.31C15.3269 10.423 15.2372 10.5341 15.145 10.643C15.142 10.643 15.095 10.577 15.042 10.497C14.6333 9.88703 14.1381 9.33965 13.572 8.872C13.4833 8.79771 13.3933 8.72503 13.302 8.654C13.275 8.63588 13.2502 8.61475 13.228 8.591C13.228 8.581 13.845 8.317 14.316 8.125C15.2285 7.75823 16.1552 7.42797 17.094 7.135C17.536 7 18.006 6.865 18.013 6.871ZM18.291 6.944C18.3639 6.96864 18.4334 7.00223 18.498 7.044C19.3797 7.54915 20.1953 8.16183 20.926 8.868C21.12 9.058 21.593 9.551 21.586 9.555L21.223 9.584C19.693 9.699 17.737 10.024 15.853 10.477C15.725 10.507 15.615 10.533 15.607 10.533C15.6 10.533 15.74 10.393 15.918 10.221C17.025 9.158 17.529 8.487 18.123 7.287C18.211 7.109 18.286 6.954 18.289 6.945H18.291V6.944ZM10.203 7.774C10.254 7.784 10.726 8.004 11.082 8.182C11.407 8.345 11.9 8.608 11.925 8.631C11.928 8.634 11.755 8.724 11.539 8.832C10.8982 9.15017 10.2716 9.49617 9.66101 9.869C9.48601 9.976 9.34101 10.063 9.33601 10.063C9.32101 10.063 9.32601 10.05 9.42401 9.872C9.7617 9.24214 10.0101 8.56834 10.162 7.87C10.176 7.808 10.192 7.77 10.203 7.773V7.774ZM9.72801 7.858C9.73801 7.868 9.61601 8.318 9.53801 8.558C9.32672 9.18942 9.0467 9.79572 8.70301 10.366L8.61301 10.513L8.41001 10.316C8.21248 10.1147 7.98432 9.94593 7.73401 9.816C7.67205 9.78801 7.61309 9.75384 7.55801 9.714C7.55801 9.684 8.17801 9.121 8.65601 8.716C8.99901 8.426 9.72001 7.849 9.72801 7.858ZM12.616 9.046L12.793 9.161C13.2 9.425 13.681 9.78 14.048 10.085C14.254 10.257 14.653 10.615 14.735 10.701L14.779 10.748L14.485 10.83C12.9818 11.24 11.497 11.7151 10.035 12.254C9.92946 12.2945 9.82275 12.3318 9.71501 12.366C9.69401 12.366 9.67301 12.385 10.048 12.04C11.008 11.157 11.855 10.184 12.488 9.238L12.616 9.046ZM11.857 9.236C11.866 9.245 11.365 9.946 11.068 10.342C10.712 10.815 10.078 11.607 9.64201 12.122C9.53067 12.2578 9.41529 12.3902 9.29601 12.519C9.28601 12.522 9.28101 12.469 9.28001 12.386C9.28001 11.946 9.16801 11.476 8.97201 11.078C8.88901 10.91 8.87501 10.87 8.89201 10.854C8.96001 10.792 10.019 10.188 10.686 9.831C11.145 9.585 11.849 9.227 11.857 9.236ZM7.26701 10.361C7.55761 10.5002 7.83026 10.6742 8.07901 10.879C8.08701 10.884 7.99201 10.962 7.86901 11.051C7.52401 11.3 6.99901 11.695 6.69601 11.937C6.37601 12.192 6.36501 12.2 6.40101 12.144C6.64101 11.777 6.76101 11.57 6.88701 11.304C7.00001 11.068 7.11101 10.788 7.19101 10.544C7.20751 10.4795 7.23246 10.4179 7.26701 10.361ZM8.49001 11.321C8.50701 11.318 8.53001 11.349 8.62901 11.496C8.83601 11.806 8.99501 12.218 9.03601 12.554L9.04401 12.627L8.54701 12.819C7.78358 13.1124 7.02798 13.4259 6.28101 13.759C6.12601 13.831 5.85301 13.961 5.67401 14.051C5.49501 14.141 5.34901 14.211 5.34901 14.207C5.34901 14.203 5.46101 14.118 5.59901 14.019C6.68601 13.229 7.62401 12.365 8.33101 11.5C8.40601 11.408 8.47501 11.328 8.48401 11.322C8.48585 11.3209 8.48789 11.3203 8.49001 11.32V11.321ZM7.92601 11.461C7.94101 11.475 7.52501 11.945 7.24501 12.231C6.56858 12.9261 5.81116 13.5375 4.98901 14.052C4.88101 14.121 4.78301 14.182 4.76901 14.19C4.74601 14.204 4.77701 14.168 5.15501 13.756C5.39301 13.497 5.57501 13.282 5.78301 13.013C5.87889 12.8742 6.00207 12.7565 6.14501 12.667C6.68201 12.279 7.91201 11.446 7.92601 11.46V11.461ZM8.92501 -1.61091e-06C8.84501 -0.0100016 7.55401 0.454998 6.72501 0.790998C5.60201 1.248 4.72901 1.685 4.19101 2.063C3.99101 2.203 3.73901 2.456 3.70301 2.553C3.68882 2.59244 3.68171 2.63408 3.68201 2.676L4.17001 3.136L5.32801 3.506L8.08701 4L11.24 4.542L11.272 4.272L11.244 4.267L10.829 4.201L10.744 4.053C10.3154 3.29689 9.92265 2.52103 9.56701 1.728C9.35947 1.25139 9.18245 0.762071 9.03701 0.262998C8.96901 0.0199984 8.96201 0.00499839 8.92501 -1.61091e-06ZM8.86401 0.185998H8.86901C8.87201 0.188998 8.88601 0.290998 8.90101 0.410998C8.96301 0.918998 9.07701 1.411 9.25501 1.941C9.38901 2.341 9.39101 2.318 9.23101 2.273C8.86101 2.17 7.19901 1.885 5.99701 1.718C5.87766 1.70278 5.75863 1.6851 5.64001 1.665C5.62501 1.65 6.50701 1.188 6.89801 1.005C7.39901 0.772998 8.76501 0.204998 8.86401 0.185998ZM5.36201 1.814L5.50301 1.862C6.27501 2.124 8.20901 2.494 9.27801 2.582C9.39801 2.592 9.50001 2.603 9.50301 2.606C9.50601 2.609 9.40301 2.664 9.27501 2.728C8.76001 2.986 8.19201 3.301 7.79901 3.547C7.68401 3.619 7.57901 3.677 7.56401 3.676C7.50719 3.668 7.45051 3.659 7.39401 3.649L7.25001 3.626L6.88501 3.271C6.24401 2.651 5.74401 2.171 5.55001 1.991L5.36201 1.814ZM5.21901 1.928L5.73001 2.566C6.01201 2.916 6.29401 3.265 6.35601 3.34C6.41901 3.415 6.46701 3.478 6.46401 3.48C6.45001 3.491 5.72401 3.35 5.33901 3.261C5.06806 3.20341 4.80007 3.13266 4.53601 3.049L4.33601 2.985L4.33701 2.936C4.34001 2.691 4.64901 2.329 5.17301 1.96L5.21901 1.928ZM9.57101 2.797C9.58601 2.798 9.60301 2.829 9.64801 2.928C9.77201 3.2 10.158 3.936 10.251 4.078C10.281 4.125 10.331 4.128 9.81801 4.045C8.58801 3.847 8.18901 3.78 8.18901 3.772C8.21405 3.75026 8.24199 3.73209 8.27201 3.718C8.66438 3.49783 9.03503 3.24102 9.37901 2.951L9.55401 2.804C9.56001 2.799 9.56601 2.796 9.57101 2.797ZM13.88 11.205L9.07201 12.773L4.89201 14.619L3.72201 14.929C3.10204 15.5152 2.45886 16.0763 1.79401 16.611C1.44859 16.8967 1.12964 17.213 0.841007 17.556C0.509007 17.97 0.249007 18.41 0.137007 18.749C-0.0629931 19.359 0.034007 19.977 0.422007 20.547C0.917007 21.275 1.90201 22.015 3.04701 22.519C3.63201 22.775 4.61701 23.107 5.35701 23.293C6.59001 23.605 8.97101 23.943 10.283 23.993C10.549 24.003 10.903 24.003 10.92 23.991C10.948 23.972 11.153 23.586 11.39 23.101C12.196 21.455 12.779 19.911 13.093 18.593C13.283 17.794 13.431 16.73 13.527 15.468C13.5565 14.8238 13.5619 14.1786 13.543 13.534C13.5181 12.962 13.4569 12.3922 13.36 11.828C13.3473 11.7791 13.3433 11.7283 13.348 11.678C13.362 11.668 13.407 11.653 13.998 11.481L13.88 11.205ZM12.78 11.85C12.825 11.85 12.94 12.964 12.971 13.67C12.977 13.821 12.976 13.917 12.967 13.917C12.939 13.917 12.352 13.572 11.935 13.311C11.5415 13.0631 11.154 12.8057 10.773 12.539C10.738 12.511 10.742 12.51 11.039 12.408C11.544 12.234 12.743 11.85 12.781 11.85H12.78ZM10.332 12.653C10.362 12.653 10.447 12.7 10.647 12.825C11.397 13.295 12.413 13.86 12.847 14.05C12.983 14.11 12.998 14.086 12.687 14.297C12.025 14.747 11.201 15.189 10.19 15.639C10.0808 15.6889 9.97045 15.7363 9.85901 15.781C9.86639 15.713 9.8808 15.646 9.90201 15.581C10.147 14.676 10.285 13.761 10.289 13.027C10.291 12.665 10.291 12.663 10.326 12.654H10.332V12.653ZM9.82801 12.846C9.84901 12.868 9.83401 13.68 9.80801 13.902C9.73186 14.527 9.59179 15.1426 9.39001 15.739C9.37601 15.756 8.87901 15.271 8.71401 15.079C8.45274 14.7827 8.22812 14.456 8.04501 14.106C7.96301 13.944 7.83101 13.622 7.84301 13.613C7.89901 13.573 9.81401 12.833 9.82801 12.846ZM7.45301 13.782C7.45701 13.782 7.46101 13.783 7.46301 13.786C7.48518 13.8281 7.50391 13.8719 7.51901 13.917C7.67327 14.301 7.87554 14.6639 8.12101 14.997C8.41714 15.3891 8.7585 15.7449 9.13801 16.057C9.16101 16.077 9.16801 16.073 8.57601 16.297C7.81814 16.5828 7.05323 16.8495 6.28201 17.097C5.95501 17.203 5.67801 17.292 5.66701 17.297C5.63401 17.308 5.64401 17.288 5.74001 17.139C6.16701 16.473 6.81301 15.169 7.17501 14.247C7.23701 14.087 7.29701 13.927 7.30801 13.891C7.32301 13.839 7.33901 13.821 7.38801 13.799C7.4081 13.7885 7.43033 13.7826 7.45301 13.782ZM6.72501 14.082C6.73501 14.091 6.55101 14.48 6.36901 14.833C5.98321 15.5791 5.56515 16.3082 5.11601 17.018L4.93401 17.306C4.91601 17.333 4.90801 17.324 4.85201 17.212C4.72127 16.9452 4.62709 16.662 4.57201 16.37C4.52058 16.0103 4.52734 15.6446 4.59201 15.287C4.63901 15.06 4.63701 15.065 4.74401 15.011C5.20601 14.774 6.71001 14.069 6.72501 14.082ZM12.993 14.337V14.491C12.9827 15.4933 12.8975 16.4934 12.738 17.483C12.0786 17.2927 11.4421 17.0304 10.84 16.701C10.486 16.507 9.97501 16.194 9.99001 16.179C9.99301 16.175 10.144 16.096 10.324 16.002C11.038 15.632 11.719 15.232 12.312 14.836C12.534 14.688 12.867 14.447 12.941 14.382L12.993 14.337ZM3.98101 15.41C3.99601 15.41 3.99201 15.438 3.96901 15.571C3.94918 15.7003 3.9355 15.8304 3.92801 15.961C3.89801 16.493 3.98501 16.885 4.24801 17.421C4.32201 17.571 4.38001 17.695 4.37701 17.697C4.35001 17.72 1.94701 18.423 1.19101 18.63L0.756007 18.75C0.729007 18.758 0.727007 18.752 0.736007 18.69C0.819007 18.157 1.22601 17.458 1.79401 16.87C2.17201 16.48 2.47401 16.248 2.98901 15.955C3.31631 15.7673 3.64703 15.5856 3.98101 15.41ZM9.65001 16.425C9.65201 16.423 9.74101 16.47 9.84701 16.532C10.624 16.981 11.707 17.402 12.63 17.613L12.714 17.633L12.599 17.696C12.117 17.964 10.528 18.625 8.90501 19.233C8.73375 19.297 8.56275 19.3617 8.39201 19.427C8.36605 19.4397 8.33845 19.4488 8.31001 19.454C8.31001 19.45 8.37701 19.322 8.45901 19.168C8.91501 18.316 9.36901 17.281 9.60301 16.563C9.62601 16.49 9.64701 16.428 9.65001 16.425ZM9.07201 16.615C9.05469 16.6726 9.03364 16.7291 9.00901 16.784C8.64011 17.6552 8.21902 18.5034 7.74801 19.324C7.66804 19.4706 7.58401 19.615 7.49601 19.757C7.49101 19.757 7.38201 19.691 7.25201 19.612C6.48201 19.14 5.80001 18.56 5.35201 17.995L5.28801 17.915L5.62001 17.824C6.70829 17.5329 7.77434 17.1643 8.81001 16.721C8.95201 16.661 9.07001 16.612 9.07201 16.615ZM12.662 17.868C12.663 17.868 12.664 17.869 12.664 17.871C12.664 17.951 12.481 18.699 12.328 19.241C12.2 19.694 12.092 20.049 11.893 20.678C11.8423 20.8477 11.7862 21.0158 11.725 21.182C10.6985 21.0065 9.69311 20.7247 8.72501 20.341C8.50797 20.2561 8.29476 20.1616 8.08601 20.058C8.08001 20.051 8.29901 19.948 8.57201 19.828C10.227 19.107 11.941 18.285 12.527 17.932C12.5679 17.903 12.6136 17.8813 12.662 17.868ZM4.37501 18.151C4.38401 18.16 3.92101 18.822 3.27501 19.727L2.68801 20.55C2.59101 20.689 2.44301 20.908 2.35901 21.038L2.20601 21.274L2.04401 21.137C1.80147 20.9242 1.57517 20.6935 1.36701 20.447C1.05501 20.058 0.844007 19.649 0.760007 19.273C0.722007 19.099 0.720007 19.011 0.757007 19C1.40081 18.8447 2.04549 18.693 2.69101 18.545L3.99101 18.24C4.20001 18.19 4.37301 18.15 4.37501 18.151ZM4.84001 18.329L4.95701 18.46C5.44566 19.0148 6.02197 19.4857 6.66301 19.854C6.7329 19.8887 6.79837 19.9317 6.85801 19.982C5.41885 20.5037 3.97547 21.0138 2.52801 21.512C2.50321 21.4972 2.47918 21.4812 2.45601 21.464L2.38901 21.416L2.49401 21.264C2.83401 20.771 3.26201 20.229 4.19901 19.102L4.84001 18.329ZM7.74001 20.402C7.74301 20.399 7.90501 20.456 8.10201 20.53C8.57501 20.707 8.94601 20.822 9.44901 20.948C10.066 21.103 10.959 21.258 11.487 21.302C11.567 21.308 11.609 21.318 11.597 21.326C11.572 21.342 11.037 21.52 10.644 21.644C9.10295 22.1128 7.55755 22.5671 6.00801 23.007C5.97301 23.014 5.85101 22.982 5.85101 22.967C5.85101 22.958 5.93801 22.848 6.04401 22.721C6.57277 22.0878 7.06555 21.4254 7.52001 20.737C7.59295 20.6251 7.66628 20.5134 7.74001 20.402ZM7.09801 20.42C7.10301 20.425 6.84501 20.838 6.39201 21.552C6.20001 21.853 5.98301 22.197 5.90901 22.314C5.83401 22.432 5.72501 22.612 5.66701 22.714L5.56001 22.899L5.50601 22.885C5.37601 22.85 4.45701 22.525 4.21501 22.429C3.92614 22.3148 3.64372 22.185 3.36901 22.04C3.08001 21.884 2.71401 21.652 2.74201 21.643L3.84701 21.341C5.43901 20.907 6.32001 20.658 6.89701 20.477C7.00601 20.444 7.09701 20.418 7.09801 20.42ZM11.621 21.481H11.627C11.642 21.519 11.052 23.151 10.837 23.669C10.788 23.785 10.771 23.814 10.745 23.812C10.2665 23.7516 9.78878 23.6849 9.31201 23.612C8.40601 23.474 6.88901 23.209 6.50601 23.122L6.41701 23.102L6.96001 22.98C8.12401 22.718 8.68301 22.577 9.25001 22.403C9.98086 22.1781 10.6952 21.9027 11.388 21.579C11.4638 21.5421 11.5416 21.5094 11.621 21.481Z" fill="black"/>
</svg>
